<svg xmlns="http://www.w3.org/2000/svg" width="329" height="329" fill="none"><path fill="#fff" d="M149.493 8.664a30.014 30.014 0 0 1 30.014 0l112.447 64.922a30.013 30.013 0 0 1 15.007 25.993V229.42a30.012 30.012 0 0 1-15.007 25.993l-112.447 64.922a30.016 30.016 0 0 1-30.014 0L37.046 255.414a30.014 30.014 0 0 1-15.007-25.993V99.579a30.014 30.014 0 0 1 15.007-25.993L149.493 8.664Z" style="fill:#fff;fill-opacity:1"/><path fill="#171717" d="M140.626 206.27h-14.091l-19.729-36.074h-4.509l.141 36.074h-10.85v-80.745h41.852v44.671h-12.401l19.587 36.074Zm-18.46-46.22v-24.52h-19.869v24.52h19.869Zm37.202 28.887h10.71v17.333h-10.71v-17.333Zm44.389 6.342h18.46l2.818-3.382v-51.998l-2.818-4.228h-18.46v59.608Zm-10.71 10.991v-80.745h31.706l12.965 18.742v44.67l-14.374 17.333h-30.297Z" style="fill:#171717;fill:color(display-p3 .0917 .0917 .0917);fill-opacity:1"/></svg>